<?xml version="1.0" encoding="utf-8"?>
<!-- Generator: Adobe Illustrator 19.1.0, SVG Export Plug-In . SVG Version: 6.00 Build 0)  -->
<svg version="1.1" id="Layer_1" xmlns="http://www.w3.org/2000/svg" xmlns:xlink="http://www.w3.org/1999/xlink" x="0px" y="0px"
	 viewBox="0 0 50 50" style="enable-background:new 0 0 50 50;" xml:space="preserve">
<g>
	<path style="fill:#29ABE2;" d="M40.567,39.49c0.878-1.626,1.02-3.417,1.02-5.301C41.587,28.642,37,23.882,31,21.841v8.294
		C31,33.565,28.984,36,25.637,36H25.24C21.893,36,18,33.565,18,30.135v-8.474c-6,1.92-10.256,6.797-10.256,12.527
		c0,7.406,7.817,13.411,17.096,13.411c2.948,0,5.863-0.61,8.272-1.675C36.395,48.479,40.559,50,44.999,50
		c0.293,0,0.62-0.01,0.91-0.023C43.18,47.174,41.299,43.545,40.567,39.49z"/>
	<path style="fill:none;stroke:#5D5D5D;stroke-width:0.8018;stroke-miterlimit:10;" d="M20.17,21.647"/>
	<path style="fill:#FCEE21;" d="M41,26.451V0c-5,0-10,4.666-10,10.423v8.508C36,20.294,39,22.979,41,26.451z"/>
	<path style="fill:#FCEE21;" d="M18,18.855v-8.432C18,4.666,14,0,8,0v26.102C10,22.736,14,20.148,18,18.855z"/>
</g>
</svg>
